<mxfile modified="2021-04-29T10:14:00.528Z" host="app.diagrams.net" agent="5.0 (Macintosh; Intel Mac OS X 10_15_7) AppleWebKit/537.36 (KHTML, like Gecko) Chrome/90.0.4430.85 Safari/537.36" etag="pL2qZi59rOENhYNbX4q0" version="14.6.6" type="github">
  <diagram id="Ht1M8jgEwFfnCIfOTk4-" name="Page-1">
    <mxGraphModel dx="1426" dy="1652" grid="1" gridSize="10" guides="1" tooltips="1" connect="1" arrows="1" fold="1" page="1" pageScale="1" pageWidth="1169" pageHeight="827" math="0" shadow="0">
      <root>
        <mxCell id="0" />
        <mxCell id="1" parent="0" />
        <mxCell id="0s3fNE5iNx1P4TI4XbMh-12" value="Trigger batch&amp;nbsp;job" style="edgeStyle=none;rounded=0;orthogonalLoop=1;jettySize=auto;html=1;entryX=0.175;entryY=0.5;entryDx=0;entryDy=0;entryPerimeter=0;" edge="1" parent="1" source="0s3fNE5iNx1P4TI4XbMh-2" target="0s3fNE5iNx1P4TI4XbMh-3">
          <mxGeometry relative="1" as="geometry" />
        </mxCell>
        <mxCell id="0s3fNE5iNx1P4TI4XbMh-2" value="Cloud Scheduler" style="html=1;fillColor=#5184F3;strokeColor=none;verticalAlign=top;labelPosition=center;verticalLabelPosition=bottom;align=center;fontSize=11;fontStyle=1;fontColor=#999999;shape=mxgraph.gcp2.cloud_scheduler" vertex="1" parent="1">
          <mxGeometry x="80" y="-560" width="60" height="60" as="geometry" />
        </mxCell>
        <mxCell id="0s3fNE5iNx1P4TI4XbMh-33" value="" style="edgeStyle=none;rounded=0;orthogonalLoop=1;jettySize=auto;html=1;entryX=0.175;entryY=0.5;entryDx=0;entryDy=0;entryPerimeter=0;exitX=0.825;exitY=0.5;exitDx=0;exitDy=0;exitPerimeter=0;" edge="1" parent="1" source="0s3fNE5iNx1P4TI4XbMh-3" target="0s3fNE5iNx1P4TI4XbMh-15">
          <mxGeometry relative="1" as="geometry" />
        </mxCell>
        <mxCell id="0s3fNE5iNx1P4TI4XbMh-3" value="Cloud Run" style="html=1;fillColor=#5184F3;strokeColor=none;verticalAlign=top;labelPosition=center;verticalLabelPosition=bottom;align=center;spacingTop=-6;fontSize=11;fontStyle=1;fontColor=#999999;shape=mxgraph.gcp2.hexIcon;prIcon=cloud_run" vertex="1" parent="1">
          <mxGeometry x="240" y="-569.12" width="100" height="80" as="geometry" />
        </mxCell>
        <mxCell id="0s3fNE5iNx1P4TI4XbMh-5" value="" style="shape=image;html=1;verticalAlign=top;verticalLabelPosition=bottom;labelBackgroundColor=#ffffff;imageAspect=0;aspect=fixed;image=https://cdn1.iconfinder.com/data/icons/logos-brands-in-colors/313/Google_Ads_logo-128.png;fillColor=none;" vertex="1" parent="1">
          <mxGeometry x="220" y="-310" width="50" height="50" as="geometry" />
        </mxCell>
        <mxCell id="0s3fNE5iNx1P4TI4XbMh-6" value="" style="shape=image;verticalLabelPosition=bottom;labelBackgroundColor=#ffffff;verticalAlign=top;aspect=fixed;imageAspect=0;image=data:image/jpeg,/9j/4AAQSkZJRgABAQAAAQABAAD//gA7Q1JFQVRPUjogZ2QtanBlZyB2MS4wICh1c2luZyBJSkcgSlBFRyB2NjIpLCBxdWFsaXR5ID0gOTUK/9sAQwACAQEBAQECAQEBAgICAgIEAwICAgIFBAQDBAYFBgYGBQYGBgcJCAYHCQcGBggLCAkKCgoKCgYICwwLCgwJCgoK/9sAQwECAgICAgIFAwMFCgcGBwoKCgoKCgoKCgoKCgoKCgoKCgoKCgoKCgoKCgoKCgoKCgoKCgoKCgoKCgoKCgoKCgoK/8AAEQgBkAJYAwEiAAIRAQMRAf/EAB8AAAEFAQEBAQEBAAAAAAAAAAABAgMEBQYHCAkKC//EALUQAAIBAwMCBAMFBQQEAAABfQECAwAEEQUSITFBBhNRYQcicRQygZGhCCNCscEVUtHwJDNicoIJChYXGBkaJSYnKCkqNDU2Nzg5OkNERUZHSElKU1RVVldYWVpjZGVmZ2hpanN0dXZ3eHl6g4SFhoeIiYqSk5SVlpeYmZqio6Slpqeoqaqys7S1tre4ubrCw8TFxsfIycrS09TV1tfY2drh4uPk5ebn6Onq8fLz9PX29/j5+v/EAB8BAAMBAQEBAQEBAQEAAAAAAAABAgMEBQYHCAkKC//EALURAAIBAgQEAwQHBQQEAAECdwABAgMRBAUhMQYSQVEHYXETIjKBCBRCkaGxwQkjM1LwFWJy0QoWJDThJfEXGBkaJicoKSo1Njc4OTpDREVGR0hJSlNUVVZXWFlaY2RlZmdoaWpzdHV2d3h5eoKDhIWGh4iJipKTlJWWl5iZmqKjpKWmp6ipqrKztLW2t7i5usLDxMXGx8jJytLT1NXW19jZ2uLj5OXm5+jp6vLz9PX29/j5+v/aAAwDAQACEQMRAD8A/MOiiivoDywooooAKKKKACiiigAooooAKKKKACiiigAooooAKKKKACiiigAooooAKKKKACiiigAooooAKKKKACiiigAooooAKKKKACiiigAooooAKKKKACiiigAooooAKKKKACiiigAooooAKKKKACiiigAooooAKKKKACiiigAooooAKKKKACiiigAooooAKKKKACiiigAooooAKKKKACiiigAooooAKKKKACiiigAooooAKKKKACiiigAooooAKKKKACiiigAooooAKKKKACiiigAooooAKKKKACiiigAooooAKKKKACiiigAooooAKKKKACiiigAooooAKKKKACiiigAooooAKKKKACiiigAooooAKKKKACiiigAooooAKKKKACiiigAooooAKKKKACiiigAooooAKKKKACiiigAooooAKKKKACiiigAooooAKKKKACiiigAooooAKKKKACiiigAooooAKKKKACiiigAooooAKKKKACiiigAooooAKKKKACiiigAooooAKKKKACiiigAooooAKKKKACiiigAooooAKKKKACiiigAooooAKKKKACiiigAooooAKKKKACiiigAooooAKKKKACiiigAooooAKKKKACiiigAooopp2AKKKKGrAFFFFIAo6UUVUQCiiipAKKKKACiiiqiAUUUVIBRRRQAUUUU0rgFFFFOQBRRRUgFFFFNqwBRRRSAKKKKbdwCiiikAUUUU27gFFFFIAooooAKKKKACiiigAooooAOtHWij296pagFFFFSAUUUUAFFFFWlYAoooqACiiigAooopp2AKKKKErgFFFFIAooooAKKKKACiiigAopf8/Skq27AFFFHt70wCiiioasAUUUU5AFLz/n+dH1o71QCUUUVMQCiiim3YAooopgFFFLz/AJ/lU/EAlFFFPcApT0/KkpU+8KUQEoooo5gCiiim1cAoooobsAUUUUXAKKKKJAKfu0lFFMAo60UUAFFFFT8IBRRRRzAL/j+NJRRTsAUUUVLVgD88ZoooqmrgFL/j+FHf/IpKYBRRRUxAKKKKIgFFFFUAUUUUkAUUUVKdgClpKVqpO4CUUUUN2AKOtFFL4QCiilPU007gJRRRUp2AKKKKpq4BRRRUpXAKKKKcgCiiipAKKKKACiiiq3AKKKKkAooooAKKKPy61SVwCiiipAKKKKACiiigAooopt3AKKKKQBRRRVrQAoooqACiiigAoooppXAKKKKQBRRRQAUUUU0rgFFK/wB40lDdwCiiikAUUUU2rAFFFFOQBRRRUgFFFFNOwBRR34xS/wCP4VVgEoooqACiiigAoooq07gFFFFQAUUUU2rAFFFFUlYAoooqACiiigAoooppXAKKKKQBRRRQAUUUUAFFFFVIAoooo5gCiiipAKKKV/vGqiAlFFFSAUUUUAFFFFABRRRTSuAUUUUJ2AKKKKE7AFFFFDdwCiiikAUUUdaadgCiiinIAoooqQCiiigAoooqpAFFFFSAUUUU0rgFFFFDVgCiiihqwBRRRSAKKKKtuwBRRRUAFFFFABRRRVpWAKKKKlqwBRRRSAKX/JpKKrmAKKKKkAooooAKKKKaVwCiiikAUUUUAFFFFVygFFFFJqwBRRRSAKKKKpAFFFFSAUUUUAFFFFWlYAoopf0qUrgJRRRQ3cAooooSuAUc/nRRVMAooooauAUUUUJWAPz9qKKPrmhO4BRRRQ9ACiiik1YAoooqgCiiip5QCiiijlAKKKKTVgCiiiqauAUUUVKdgCiiihOwB7Y5oooqwCiiiklYAoooqUrgHP3feil6UlWAUUUVPxAFFFFJu4C/lx+tJRS96pO4CUUUUWsAUUvekobsAUUuR6/pSUwCiiiswFHT86Siiq+IApfz/wDrUbv/ANVJVAFFFFJgFFFFK1gCl2/j9KSj+lUAUUUVDdwCiiirAKKKXJ/v1NgEooooTAX8/wD69FJRRzAFFFFSAUUUVUgCiiipAKKKKaVwCiiinygFFFFSAUUUU0rgFFFFCVwCiiikAUUUUAFFFFWlYAooopSAKKKKkAooopp2AKKKKQBRRRQAUUUU2rAHWiiimwCiiipAKKKKACiiimAUUUUgCiiigAopef8AP8qSm1YAooopAFFFFABS8/lSUVUQCiiipAKKKKACiiiqQBRRRSasAUUUUgCiiiq5QCiiipAKKKKbdwCiiikAUUUVUgCiiipAKKKKaVwCiiihOwBRRRSAKKKKACiiirSsAUUUVLVgCiiihu4BRRRTiAUUUVIBRRRQAUUUZ/P1ppXAKKKKGrAFFFFIAoooquUAoooobAKKKKSVwCiiikAUUd+KKbVgCiiikAUVLZ2sl7eQ2URG+eVY1LdMk45/OvoX4l/8E1/jF8L/AIT6p8XdZ8XaFPZaTpQv7m3gkk8xo8A4XK4z8wrx804iyXJsRRoY6vGnOs+WCd/ed0rLTu0vmehgspzHMaVSrhqblGmrya6LV3f3M+daKAMnFFey3c88KKKKewBRRRUgFFFFNAFFFFDdwCiiikAUUUVXxAFFei/Ar9lf40ftGRXt38MvDaT2mnOI7q+uJhHEshGQgJ6tjnA6d65v4n/Czx18G/GNx4E+ImhvYalagF4mYMrKRlWVhwwIrzKWcZTXzGeX068HXgrygpLmS01a3W6+9dzsnl+Op4SOKnSkqcnZSs+Vvyexz1FFFeicYUUV6V8C/wBkz43ftFWN3q3w08NpNY2Unlz3t1MI4/MIzsGfvH6Vx4/MsvynCyxONqxp01a8pNJK+2r7nRhcJisdXVHDwc5vZJXZ5rRW98Sfht41+EfjK78A/EHRH0/VLIjzoHIIKkZV1I4ZSOhFYNb0K9DE0I1qMlKEkmmndNPVNNbpmVSlUo1HTqJqSdmno0+zQUUUVv8ACQFFFFOwBRRRUtWAKKKKQBRRRTasAUUUUAFFFFIAooopp2AKKKKsAoooqGrAFFS2lpd6jdw6fp1rJPcXEixwQQqWeR2IAUAdSSQAK/Xr9g//AINeb/x/4I074l/tu/EXUdCm1CBLiHwZ4fCrPbowBC3EzZAfB5RQcdM5qJ1adFXkyowlN6H5AUqfeFf0W3n/AAbMf8Ey7nRTpsHh3xRBcbMfb014+Zn1wVxmvz2/4Ks/8G+vjD9iH4e3n7Q/7PXjW98X+B9NYHW9P1GIfb9LiJAExK8SxgnBOAR6VnDGUZysi5UakVdn5tUV6X+xx8C9L/ae/ah8DfAPWNdm02y8Wa9BY3OoWyhnhjc8so6Zx0r9VP2rf+DYP4IfCP8AZ88U/Ej4P/GfxnrHiXSdMafRtIvIInS9nBAWEhefmJwPrV1K1OElGXUmMJSV0fjBRX7lfsp/8GsnwJtfhnp+s/tafEfX9R8V3lqkt9pug3KwWlgzKCYgSCZGU8FuBkV83f8ABVT/AIN5vFX7J+jab8V/2QdU1nxl4ev9Wt9MvvD96gkv7Ge4kWOGRWQDzImdgp4BXIJ45qIYqi58qY3SqKN7H5jUV+4/7Kf/AAawfBOy+HljrX7XnxO1zU/FF3brJe6T4duVgs7FmAJiDEEylTwW4HHfrXh3/BU7/g3Ni/Zc+EOqftGfsk+N9U13RdBgNz4h8M61te5htx96aGRQN4XqVIzjnnBojiqEpcqY3RqJXsflTRUljbXeqXMFjplq9xPdSpHbwxIS0rsQFUAdSSQMV+u/7Bf/AAa/X/xG8Dad8T/22fiLqOgvqMCXFv4O0AKtxBGwBUXErZCsQeVAOOhxWtStCkryIjCU3ofkJRX9F15/wbMf8EzLjRv7Nt/DviiC42Y+3x68fMz64K4zX54f8FYP+Df7xh+wt8PLz9or4CeNLzxd4D01wdds9QhAv9IiYgCdivEsQJAZuCvBIxWEMTSqSsi5UZxVz84KK739lj4Qaf8AtB/tNfD74Datq0un2njLxbZ6Rc30C7pLeOZ9rOoPUgdK/ao/8GoH7HWcj4/+P/xkg/wrWriKdJpSJhTnNaH4MUV+83/EKB+x3/0cB4//AO+4P8K+Xv8Agrf/AMEIvgJ/wT6/ZUk/aB+F/wAW/FGrX0GsW9pLZa15ZjdJCRkbRwRWaxVGclFMp0akVdn5dUV7N+w9+wt8dP2/PjLb/B34JaQu9UE2r6zdAi10y3zgyyN+gXqTxX7FfCX/AINWv2OPD3hmCH4v/FTxb4j1loh9ruLO5S1tw/8A0zTaTj6n8KqpiKVF2kyYU5z2PwPor9jv23P+DWoeGPBF946/Yd+JmparqNjA0zeDvEzqWvQASUgnUAB8DCqwwTxmvx28Q6fq/hW91DR9f0uey1DTJpYL6xuoyksE0ZIeN1PKsGBBFVTq06qvEU4Sg9SKiv2g/ZO/4Nlf2avjt+zZ4I+MvjD4/eMbfUvE/h221K8t9PiiWGN5UD7U3c4Gcc1wH7D3/Btrb/HL4geMPEvx0+Iur6Z8P9D8T3Wl+FksIljvtbihkK/aGZgRHGcYBwd3aoeKo667F+xnp5n5Pd/lzRX7sftIf8Gr/wCzhq3w9vLz9mT4m+IdG8UW1sz2EGt3K3FpduASI3+UFNx43DpnpX4hfEb4feLfhN481f4Z+PNKex1jQtQlstStHHMcsbFWH04yD3HNXTrU63wkzpyhuYlFe+/skfsFeMP2pdEufGR8YW2i6La3X2cytCZZpHAyQF7DHf3r6R0b/gkV8AbKBR4h+Iuu3Mw++0VxFGp+gPNfn+feK/BPDuOng8VXbqwdpRhCUrPs3ZK/zPqsr4H4jzfDRxFCklCWzlJK/ot/wPzxor9AfGv/AASB+Fd9pkjfDr4natZXpU+U2ohZoSewO3kV8TfGL4Q+NvgX4/vfhx4/08QX9k2Q6HMc8Z+7Ih7qRXocL+IPC3GNSVLLa16kVdwknGVu6T3XezdupyZ1wrneQQU8ZTtF6KSaav202fqcvRXpX7Nn7LfxJ/ac8TyaL4MgS3srTB1LV7kfubcHt/tN6LX2F4d/4JEfAyx02NPFvxC127uyvzzQSRwxk99oNYcTeJXCHCmKWFx1d+16whFyavte2i9G7+Rrk3B+f57R9thqfufzSain6X1fyVj8/wDw9/yMOn/9fsX/AKGK/Vb9r3/kyLxp/wBiQP8A0BK+dvil/wAEl9U8PyQeJ/gd44bVVtrpJH0rU9okZQwJ2yDgn2r6K/bFimt/2JvHMEke2SLwWVdSfusEQEfmK/FeP+Lsg4uz/Ia+V1udRrJSTTUot1KVrp6q9tHs+jP0XhXIc1yHLMzp42ny3puzumn7s9mv+HPybXoPpS19pfBP/gmR8KPjZ8EdD+Jnh74q6mLzWtKMqRmNfKiuuVMbdwAwAPsa+Ode0TUfDGvXvhvWIDHd6ddyW1yhGMOjFT/Kv37IuMMi4lxuJwuBm3Uw75ZxlFxad2uu6vFrT9UflmZ5BmeUYejXxMUoVVeLTTTVk+m2jRToor6//Zu/4Jo+GPiv8GLD4qfEXx3f6VJqMT3MVtbRrtjtxyrMT6jmteJOKcl4SwUcVmVRxjKSirJybbu9EtdkRk+SZjnuIdDBxvJK7u0kl6s+QKK9R+Fv7L/iz48fF/UPhz8I3Nzp1heSJLrV4u2KGFWKh3PqccAda+vPDv8AwS2/Zk8A6LFd/Fnx9d3k5A86e4vEtYC3+yCc14nEXiVwrwvUhRxVSUqs0mqcIuU0nqrrRRv2bT8j0so4PzzOoSqUIJQi2nKTtG63s+vqtD88qK/RDxD/AMEuP2YPH+hS3nwq8bXtjNgiC6tL1bqAN/tDqRXxJ8fPgN48/Zy+Ik/w68f2yecsYmsb2DPlXsBPyyof5jseK14V8RuGOL8RLDYKco1oq7pzjyyst2t07dbO66ojO+Es6yCkq2IinTenNF3jfs+qv0utTiqK+uvhB/wTc8IfE79mKy+Ns3xA1GHVL7w/NqMVlHCDErKjMsfqc7cZ96yv2av+CYfxA+LmkQ+MfifrEnhrTJxutbRYN11Ov97afuD0zWNXxN4KoUsTOrieX6vP2ck4yTctVaKteWz1WmmtjSHBnEdSdGMKN/ax5o2aty6ayd7R3W58tV1vwJ8E2PxH+MnhvwPqkTSWuparFFcxq2C8ZPzDI6cd695/bV/YN8A/s3eFtC1vwT4r1W6m1TVBZzLqm3aucYYYHHWvZ/2af+CaGjfCLx74e+MGq/FY6pdaeUu4rCG0CRszJnaTnnGa8jOfFThWnwq8fQryTrRqRpe5JNzirdtLSa1bR3ZfwRnks8WEqUk1TcHP3lZRk799dE9Eeaf8FK/2WvgZ8BfA3h7X/hL4P/sqe81eS3umF08gkjCEgHceMHmvj2v1v/ai/Zd8KftUeGtM8M+LfEd5psWmXrXMUlmVy7FduDu7V8xftD/8Ex/hh8H/AIIeJfijoHxJ1W4u9C0/7TDb3RQxykOq7Tjn+KvjfDLxVyWjkeGy3NsTUni5zcbyUp3552gnPXuvQ+i4y4IzGeZVsZgaMI0IxTsnGPwx973dO3zOc/YB/bk+G/7OngTVfhr8UNKvFguNTN9YX9hFvyWQK0bj1yMg/hXl/wC2v+0Zon7S/wAY28a+F9JmtNMtLJLSy+0jEsqrnLuO2STgeldb+wr+xZ4O/as0DxFr3i3xdf6aNGvoraCKxQEuXjDliT9cV51+1d8E9L/Z5+OGqfCvRNYnv7WyhgkhubhcORJGr4OPTOK+yyjCcBx8TMZPCOf9oqLc0+bkSahzOOlrtSjfXq7Hz2Pr8Tvg3Dxr8v1RtKLVuZ25rJ9bKz6drnnFFfYX7Lv/AAS7m+IPhi08f/HHXrrS7S9iE1no9kAJjGeQ0jH7uRzjrXrc3/BPP9hLnRj4h8u7B2kjXk8wH6Z608z8ZODMrx88JGVStKDtJ04c0U1vrdXt5XQsF4fcRYzCxrtRpqWqU5Wb+Vnb52Z+cVfXP7Bn7eHwx/Z++Gd58Lvifpd7Gi37XVjfWMO8OGHKOOx9DWV+2z+wH4S/Zw+H0XxW+H/ju5v9OfUYrWSwvdrOpk6MrrwRVH9hr9h7wZ+1T4M1vxZ4t8Yahpx0zU0tIYbFFO4FNxYk/wAqz4lzzgHjDgOePx9SbwanFNxUlOM00krWvf3rPRqzLyfLOKOH+J1hcLGKxHK3ZtOLi1d638vJ3R5/+2X+0FpP7SvxvufiH4d0iWz02Oyis7BLgASyIg++47EnoOwrymvUvjV+z/pfww/an/4Z+0vX5rizk1ewtIr+ZP3ipcsi5I7ld/44r3v9oD/glNP4N8NWV18Dtd1LXtWn1aO1nsrwKqrEysWmz/CFK8/7wr1sPxZwXwtl2W4BVXTpVqadFyTtyJJpzk/h3V+bqcFXIuI87xWMxTp886c37SzV+Zt6RS326dD4yor7u+G3/BJj4f8Ah7TI9U+PnxOeS5KgyWenSrDDGf7pduW+td1ff8Euf2TPEWjY8OzalbM6Yiv7LURJg+vcV4eL8b+A8LiPZxnUqRvbnjB8vybab+Sfkelh/DbievS53GEXvyyl734XS+bPzXor079qn9mXxP8Asu/Eb/hDtZvBfWN3H5+k6ki4E8WcYI7MO4rH+A3wC+In7RfjhPA/w904PIFEl7ezcQ2kX99z/Id6/SaPEGTVslWbRrR+rOPPzt2XL3d9u1t76WufIzyvMKeYPAum/bX5eXd3/rrtbXY4miv0J8Jf8Eh/gzp2kp/wnfxE1m+vSo82W0ZIYQf9kGuX+L//AASJso9Hm1b4EfEOW4uoULLpWsFT5x/urIvCnsM1+fUPGrw+xOMWH+sSim7c0oSUPv6LzaS7n1NXw64qpYf2vsk+vKpJy+7r8mz4eor6u1L/AIJg6v4c/Z8ufi/4q+IT2Wr2egvqN1oLWWfJZULmEvnrgYJ9a+Uetfc5BxPkfEsa0stq+0VKXLJpNK/k2lddmro+bzPJsyyd01jKfI5rmWqennZ6ej1ClpKK99O55YUUvekobsAUUUVABRRRQAUUUUAFFFFNqwHsf7AHxl+DH7PH7Y3gL44ftA+Gb/V/CvhfWBqF/YaZbrNO8kaMYGVGID7ZvLYqSMhTX6//ALWf/BzV+y3qP7MXiP8A4ZH1PxBH8SLy1W38PW+u+H/LW1d2AedjvZSUTcwHOWxX4z/si/swfEP9sv8AaJ8Mfs4/DBIxqviO+8o3U4PlWcCqXmuHx/CkasxHU4wOTX9D/wCzt/wSJ/4Jt/8ABPj4QT+NvG/w90PWrjQdNa88R+PPHNsly6iNd0kqq4KQKOyoM4wMsevHinQUk53b7G9H2jTUdj8kP+CWX/BSj/gopeft9+ArbxN8cvG/jDQvFfimDTfFGm6zJLdWYgmbDSBSMRFOoIxjpX9Af7UHhrTPGP7OHjvwvrNuk1rfeEdQinjcZDKbd6+F/h//AMHDH7BPi39o3wn+zT+z78FfEGoL4j8R2+jWGvRaRbWNmjyNtWVEyZCn1VT7V98/HX/kifi//sWL/wD9J3rkxDcqibjym9JJRavc/l6/4JRQx2v/AAUs+EtrEMJD48ijQegWUgfoK/qR+KPjnRPhh8ONc+JPiRc2GgaTPqF2AuT5cMZkOPfC1/Lj/wAEqv8AlJr8Ksg/8lCTt/02av6Tf+CgTtF+w18XpEOCvw41gg/9ucla4xXqxRnh9IM/Lb9hT/g44/aa+Pv7fHhj4Q/FbwP4bg8EeOvE0ejadZafAy3OmtPJ5ds/mk/OdxTfnggtjHFfsr4x8Q6R4Q8J6l4u1/b9i0mxlvbksB8qRKZCee425Ffyj/8ABM7/AJSH/AzH/RVdC/8AS2Kv6hv2vZHh/ZV+I8sbYZfBGqFTj/p1kqMXShCpFRViqM5OLufkT+zr/wAHMv7Svxa/bk8N+CfEnww8N2vw38VeK4tKh02GN/t9lbyyFI5jLnDyDgsuNp5xiv2R+OOl6frnwW8W6PqkCS21z4Zvo5o5BkMpt3BzX8nH7GP/ACd58LOv/I/ab/6PFf1n/F7/AJJN4o/7F29/9EPTxdOFOceVWCjKUou5/Kb+wl8X/gx+zx+2f4R+M/x78M32r+FfC/iKa7u7DS7dZZmdHbymVGID7WwcEiv2A/as/wCDmr9lXUf2aPEjfsnal4hi+It3aeR4et9c8P8AlLbyOQGmYh2XKKSQOckCvxo/ZX/Zk+IX7Y/7TWj/ALOnwxiQap4h1qdGuZQTHaW6yMZZ3x/Ci5Nf0Nfs3/8ABIL/AIJw/wDBP34RS+M/HHw90PXbzQ9ON34h8c+N7dLlk2LuklVZAUgQYOAozjqSa6MS6CknPV9jKiptPl0PyX/4JXf8FJP+CiWqft7+BLbxR8cfG3i/Q/FHiq20/wATabq8klzafZ55AjuFI2xFQcqR0xX79/tT+DtH+IP7M/xA8E+ILRJrLU/BmpW9zDIuVdGtpAQa+IPhx/wcG/sE+Mv2jvC37NP7Pnwa17UE1/xFbaPY69Do9vY2SNLII1lRc7ygznlVPtX3t8bv+SMeL/8AsV9Q/wDSaSuSu25puPKb0klFq9z+QH4WfEHxf8L/ABd4e+KvgPV2sNe0C9t9R0i/VAxt7mPDI+DwcHsa+1fAH/BdD/gs/wDFnx5o/wAMfhz8c7XVNe1/UY7LSNPt/BtkWmmkOFGAnAHUnsATXwhpjomkW7uwCi3QknpjaK/c/wD4NuP+CWTfDfwpH+378dvDWzxBr9oY/h9pt7Fh9PsG4a8Kn7skw4XPITn+IGvQxEqUIc0lfsctJTlKyZ+mP7L/AIS+Nvgn4F+HdB/aN+JKeLPGyWCP4i1qKxjto3uWGWSOOMBQik7Qe+M96/E3/g46/wCCndj+0F8S1/Yx+DurpP4V8G3xk8T6hA+Vv9SXjylI6pFzn1bNfeX/AAXn/wCCo1r+w78BW+D3wt1qP/hZXji0kg08RPl9JsiCsl2wH3WPKpnvk9q/nHv7i6vDcXl5cyTTzs8k00rZaRzksxJ6knmubB0by9pL5G1epZciP6R/+Deb9lLQ/wBnv9gDRPH82koniH4gu2rardMg8wQ7isMWf7qqCQP9qvjD/g4Q/wCCqX7Unw3/AGsIf2ZP2cvjBq3g3SfDGlwXGsXWgz+TcXl7LltruOdiIFwvQ7znpX6vf8E+jpx/Yh+FZ0rb5P8Awg+n7dnTPkru/XNfz3/8F8oriP8A4KpfEwzggPNZGPP937LF/XNRh0qmJbkOpeFJJH7Of8EHv23/AIi/tvfsPQeKPjNrS6j4t8Ma5Po+rajs2veRoqPDPIBxvZWIOOuzPU1+Yf8AwdIfsn6B8Ff2tNK/aC8G6WlrZfE/QJ5NZjhj2p/alrhHlP8AtSxvGx9ShPU19Wf8Gmpuv+Gcviqsn+pHjGz8r6/Z33f0rJ/4O7I9O/4Z1+Esrbftg8XaiE/veV9hO78M7adP93jbLYJe9h02fol/wTl/5MO+Ef8A2IWnf+iVr86/+CwH/Ben45fsfftSyfsx/sl+G/DsVv4WjifxJe6pZGQ3Fy43m3RQQEUAjLDkk9a/RT/gnL/yYd8I/wDsQtO/9ErX853/AAWfkeX/AIKlfGdpGJI8VMBnsAigVOGpwqV5cyHVk401Y/pF/Yi/aRi/a7/ZS8D/ALRselLYv4q0OO7ns0OVil5V1Ge25TjPav55/wDgvn4UsPC3/BUP4hHT7ZYhqT215IqDALNEFJ/8dr9uv+CGX/KKv4P/APYuH/0dJX4uf8HEPH/BT/xdn/oG2X/oBq8KlHEyS/rUVbWkj5Q8GftC/Gv4c+EJvAfgL4iX+j6ZcXJnmhsHCMXIwSH6jjtWBqfjvxvrVwbrV/G+r3ErHJkl1GQkn/vqvqb9h/8A4J3aX8YfDMHxc+M891Ho1y5/srR7ZjG94gODI79VTIIAXk4PIr1fxdrv/BLH4QalJ4J1jw/4cuLyzcx3EMGnS3rRMOCGlAYEg8EbiQe1fmeYeIfDOX59WwWV5fPFYiLftHRpRdns+aW7a2b1V9L3PssLwnnGKyynicbio0KTXuKpNrTdWWyT3XW2tjyH/glr8ePiQfjyPhDrPiq81DRNV0i5mW2vZzJ9nmhAZWQk5XOcEV0H/BYrQrX/AISbwR4gtbUfbJ7Ce3cqvzS4k+QH6ZwK9Y/ZwuP+CefiT4w2fiH9nv7JB4uisrgW9tAl1B+6ZQJP3cgCNxjp0rg/+Crwjbxt8LVmA2HUlD56bftKZr84wWb0Md40YTGUMHUwrlTlzwqQ9nJyUKl5WW6aUVfq13PrsTgKuG8Oq+HqYiNZKa5ZQlzJLmhpd7NO+nS57d8AvBHhv9lH9lK2uZ4EDWWjHUtXmC8zzsm45P1IX2r85PjR+058YfjZ4tuvEXiPxtqEVvJMxtNOtbpo4bePPyqqqR26nvX6TftfiQfsjeLl04fL/wAI5xt/uZXpX5Lr9z8q9zwQwWGzmeYZ7jYqpiJ1bc0km0muZ2vtdu3oktjzfEnEVsuWEyzDtxpRhey0T1sr97W/E9L+CX7UXx3+E3iyxn8J/EbUDBJdxpPp97OZoJVLAEFWz2PWv0b/AGyrp739jDx3eyKA0/g5pXUHgFlRiPzNflL4d/5GGw/6/Yv/AEIV+q37X3/JkXjX/sSB/wCgJWXi7l+AwvF+RV6NKMZzqrmaSTlapSte29ru1yuAsXiq2Q5nTqTcoxpuybbSvCd7dr2PB/8AgkH8Z/tOj+IfgBq1589o41fREZuqN8s6L9Dtf6V5F/wVB+Ea/Dr9pe48W6fa+XYeLrRdRjKjjzx8kw9vmGcV5T+zb8Xbv4FfHHw38UbeQiHT79U1FN2BJaSfJKp9tp3f8Br7y/4Kf/Cy1+J/7NkXxD0FBcT+GblL+CZF+/ZzABzn0GUOPeu3NKX+pHjLh8fHTD5inCXZVHZP/wAnVOTf96Rhgp/6yeHtXCvWrhHzLvy6tf8AkvMv+3Ufnt8LvA198TfiNovgDTYy8urajFbkKOQhPzn8FDH8K/SX9tT4iWP7On7Kk2geHplt7q6s00nSkj+UjK7WYD2Xr9a+aP8Agk/8Jf8AhLPi9qXxSv7Uva+HbPyrZmXINzL6ehCgH/gVVf8AgqX8ZT42+Ndv8NtOut1l4ajCzKrcG5fBfPuBxW3FdP8A1z8VcFky1o4OPtai6XdpWfr7i+bM8jn/AKvcEYjMdqmIfJD02v8A+lP5I+n/ANjLwLoX7PP7JMHi67tFW7u9Nk1fVpTw0h2llQn0AGB9a/Or41fHHxz8ePHN7448ZeIbmYXE7Gzs/PIitoc/IiqDgYGM+9fqtpOpeD9E/Z3stV8U6et1otv4ahe+tzAJVkiEQ3DZ/F34r5xX9qX/AIJdFRt+Cul4I4/4o2OvifD7iXFYbPczzZ5ZVxlapUa56aT5Fdvl12vp8kkfScVZPQrZZg8CsZToU4QXuybXM9NdN7a/NnzB+xp8cPFvwZ+Pvhy70jW7j+ztS1SKx1XTWnJiuYpWCYKk4yCQQfavrn/gsB4C0+++CuiePWhX7ZoPiQWYnC/M0VwpGwn03JnHqayrP9rH/gmRp15DqOn/AAe06G4t5Flt5ovB8YaN1OVYHsQcEGuJ/b7/AG4vg7+0H8Fbb4c/Da41Ke7k12G8u5Luz8pVSMNjknkksa+hxLz3iPxJyvN8PlVbDKm+WrKcbJx11bWmkXJa90uiPIo/2XlHB+NwFXHU63OrwjF3tLyT80np5s+nf2FWCfsd+A3dNyjw+hK46gZr4h+Pv/BQr9pDx54sv9M8P+LH8M6Za3UkNvaaP8j4ViuWk6knH0r7c/YY/wCTNfA3GB/wji/+zV+WHjD/AJG3Vf8AsJz/APoZrDwtyTKM143zytjaEakqdV8vMlJLmqVL2T0u7LW1+xtxrmWPwPDeW08PVlBTgubldr2hC2q16s0vGXxg+LHxEtILDx/8SNZ1qC2cvBFqN60ixt3Iz0PvXsf/AAT08c+N9U/as8L6RqfjLVLm0JkDW0967xkBDgYJxXzzXuP/AATm5/a88Lc/8tJP/QDX7JxlgsDR4Lx8adKMVGjVaSikk+V6pJaP0Pzzh7E4mpxHhZTm23Uhe7bv7y3Pp3/grV4i8Q+GvhZ4VuPDuvXlhJLrrrJJZ3DRll8s8EjtXwRqXj/x7rNlJpmseNtWuraQYkt7i/dkfnuCcGvur/gsJ/ySbwl6f29Jx/2zNfn9XyHgnhsNPgChUlBOXPU1aV/jfXc9/wAR61aPFNWKk0uWGl3b4Ufen/BHP/kn/jn/ALD1v/6TrXkH7dx0wf8ABQBjrRX7GLrR/te/p5WyLdn225r2D/gjlz8P/HP/AGHrf/0nWvB/+CmX/J4Wv/8AXhY4/wDAdK+ZyCn7bx1zane16LV+11QR7OaT9n4Z4GVr2qJ/jUPt39tPSfiTrn7MWp2PwZFy188MRaPT2ImktcfMqY5zjHTnFflbeLqtleyQag95DcxuRIs0jrIrDrnJyDX13+yr/wAFP5vh94esvh98cdHu9Qs7JFis9cscNOkY4CyISN+BxuBzgdDX0TJo/wCxF+2zYG4hTQtavXj5ktm+zajEMdSPlkwPcEfWvL4bzTO/B6NbAZtl8qmGlNyVemr6Oy16bLRSlFrXc7c3wOW+IDp4rA4tQrKKXsp6eenX5pNM/MW58YeLr7Qx4YvvFWo3GmrKJVsJ7x3iDjo20k8195/8Eev+SN+LT6eJY/8A0TXjH7ZX/BO/U/gDoE/xP+G2tTat4bgcfb4LpR9osQTwxKjDp2zgEe9e0f8ABHk4+Dfi0jn/AIqSPj/tjX0PiXn+R8SeFNbG5VNSpupTvZWalzxupLdS9d9Gm0eVwbleZZPxxTw+Ni1NQnbW6a5XZp9V/W54b+1uP+NlUA/6mfQv/RkNfbv7aXxT8X/Bj9n3xF4/8CXMUGqWxjjtppo94j3yhS2OhIB4r4i/a3/5SVQc/wDMz6F/6Mir66/4KT/8mleKRuP/AB8W3/o9a+I4lw9DF4ng+hWipQlTopp6ppuimmuqZ9Hk1arh8Pn9Sm2pRnNprdNKdmfmf40+J3xI+IurPrfjjxzqmp3MhJaS4vHwPYAHAFe/f8Euvin4u0L9oSL4ff23dTaVrdnKs1lNOXRZEG5XAJ4PBH418x17t/wTa/5O68Pf9crjP/fs1+98dZfgXwLj6CpRUI0ZtJJJJxV1ZLazV1Y/L+GcViVxNhanO+Z1Ipu7u7uzv3ue+f8ABYyztj4H8G6syDzIdQnUPt5wU5H6V6l/wTo+EWlfCf8AZn07xFcWqx6h4jRtR1G5IAYxc+WueygD8680/wCCxJH/AArfwluxj+1Jcj2219AfDkef+yVpCaSSS3gUC32c5PknGMV/MeZ43FR8HcrwUZWhVr1FL0jJtL0u7+q8j9mwWGovxAx2JavKnSg16tK7+5W+Z+dX7Vv7XPxN+O3xL1RrfxXfWPh6zvJLfSdKs7hooxGjFd77SNzEgnP5VyHw4/aL+N/wj1eLW/A3xJ1S3aJgzW8900sMo9HRiQRXG3AdbqdZPvCdw/13HNRv9w/Sv63wfDmRYTKoZdDDwdFRUeVxTT0td3Wre7b1b1PwjEZvmdfHSxcqsvaN3vdpr07JdEfrf8Z9bu/Ef7IHiHxFqCqs9/4GmnnEYO0M9sWOPbJr8ka/WL4jf8mRaoDn/knj8/8AbrX5O1+N+AUY08vzGMVZKsl9yP0HxSk5YvBye7p/qgooor+gLn5YFFFFJqwBRRRSAKKKKaVwCiiiqTuAUUUVAH6J/wDBsNdeHrf/AIKVSQ6yYxdT+AdSTSQ+MmcPCzbffyhL+Ga/Zb/grX+z38UP2o/+CfnxE+C3wbUy+ItT02KTT7QShDdmGeOVoATgZdUKjPBJxX8xX7Pnx6+Jf7MHxm0D48fCDWzp/iDw3fC5sZyuVbgh43X+JHUsjDuGIr9ovg1/wda/s26l4Ptv+F9/AbxZpWvJEBdr4cWG7tZXA5ZDI6MoJ5AOcZxk1w4mlVdVVIK50UpwUHFny9/wRY/4I4ftbaj+2j4a+N/7Qnwa1nwT4V+H+o/2izeIbU2019ex/wCpjhjb5mUNyXxtwOpr98PGnhyLxh4P1XwnPJsTVNNntHcfwiSNkz+Ga/En9u7/AIOgPFXxR8C33w3/AGK/h1qPhE6jC0M/i/XZUN9AhGD5ESZWN/8AbLNjsB1rM+Dv/Bz38VPh7+xj/wAKx8WfDuXXvivp1t9i0jxbeThrSeLGFublfvNMo7dGIyT1zFWlia7UmvkXCdKnomfN/wCyj+zj8Qf2S/8Agtf4K+AfxMsPJ1PRPiVGEkX7lzA8heKZP9llINf0Gf8ABQX/AJMX+L//AGTjWP8A0jkr+Zf4Nfto+O/Df7dnhv8AbX+Pl9qXizWLDxNDq2sNcS7Z7pFbO2PdwqgcKBwAMV+mn7UX/Bzf+zj8bf2c/HHwd8Lfs/eLoNQ8U+F73SrS4vbiARRPPC0YdtpJwN2ePSrr0qs5xaVyaU4Ri0fmT/wTO4/4KH/Az/squhf+lsVf1B/tg/8AJqXxI/7EfVP/AElkr+Uv9lj4v2f7PX7SfgD47aloz6jB4N8XafrM9hFJsa4W3nSUxhj0JC4zX67/AB6/4OhP2a/id8EvFvw38Pfs9+MIr/XvDt5p9nLd3EAiSSaJowzFSSAN2eBVYqlUnUi4oVGcYwabPyS/Yw/5O9+Fn/Y/ab/6PFf1n/F7/kk3ij/sXb3/ANEPX8iHwR8fQ/CT4zeEvinc6cb2Pw14itdSktUfaZlikDFQexI71+0Xj7/g6i/Zk8TeANa8OaZ+zp4yF3qGkT20Hn3MAjEkkZQbiDnGT6UYqlUqSjyq4UJxhF3Z8p/8GyF74Ytv+Clmt2+uvELy48Laiuj+ZjJlE7F9vvsr9kv+Crf7P/xM/ae/YI+IXwZ+D6mTxDqmlq2n2wlCG6MciyGEE8AuFK88c1/MH8B/j38Sf2bPjZpHx9+EetNp3iDRNUa8sZcZUhnJaJx/EjA7SO4r9ovgx/wdafs53/g22Hx++A3ivTNfSEC7/wCEbWG7tZXA5ZfMdGUE87TnHrU4mlVdVTgrjpThyOLPmP8A4Ir/APBHX9ra5/bP8N/Gz9oH4Oaz4K8M+ANUTU3fxBaGCW+u4TmGKKNuXXeAS/3doPJOBX72+MfD0fi7wjqvhSaUxpqemz2jSD+ESRshP/j1fiX+3T/wdB+Kvib4IvPh1+xb8ONR8JtqERin8W67KhvYEIwfIiTKxv8A7ZZsdhnmsj4V/wDBz38WPAH7Fq/C3X/h2+t/FjTbVbDSPF19MGs5oQu1bm4T7zzoMDHRyMk5zmKtLEVmpNFQnSprlR85fsLf8E0Li6/4LC6F/wAE/v2nNPP2fw1qt5da1bo2I9VtbKA3MWCD/qp0EbccgNjggiv6ZNP0+w0mwg0rS7KK2tbaFYra2gjCRxRqAFRVHCgAAADgAV/Kp+yn/wAFG/i9+zt+3bB+3145ik8e+LGi1BNRGs3jIbxrq3MO4so+UICNqgYAUKABivo3x3/wVR/4Ldfte3surfD/AFHVPCuiXR3Wtl4a0xLGFV7bZ5QZW4776wzTEYbBwVXF1oU4d5yUVf5tGuCo18RJwoU5Tl2im3+B+xv7Sv8AwSG/YB/a58e3/wAUvj18EZNa8R6jGqT6wPEeoQyqqrtVVEc6qqgdFAx7V+X3/BYX/ggN8F/2Pf2f9W/ao/Zz+JWsx6bo88K6l4W8QFbj5JXCAwTqFYAEj5XDE/3q8V0n46f8F6fhjcDxLZ/GXxvcvGd/lT6/Ffg+3lOWB+mKq/tMf8F0f2tv2kf2S/En7G/7SngLRrrUdQnhSfxFHbG0uoPKkDMskK/IWJHUBcehrnyvNMvzOX+wYqnWUd+ScZWXnZuxrjcDi8Gv9qoSpt7c0XG/3o/Vv/g3k/au0D9oP9gLRPh7LqqP4h+HztpWq2zP+8MW4vDLj+6ykgf7tfIH/Bwt/wAEq/2m/iz+1JY/tOfs3fCbU/F2n+IdJhstbs9Dh864tLyIsFkZB82x0YDcOBs5xkV+bn7D/wC3L8c/2BvjJb/GD4I60EkKiLVtIusm11K3yCYpVH6HqDyK/Yv4Sf8AB1L+x74g8MwS/GL4S+MPD2siIfarfTYIry2Ld9khdGx7FfxNejKlVo1ueCumccZwqQ5ZOx71/wAELP2FfHv7Cf7FEHhP4v6bHZ+L/E+sS6xrVikgdrJWVUht3K5BdVUscE4L47Gvy9/4Ojv2tvD/AMbf2rNK/Z58Fasl1Y/DHRLhNZkhfch1S5wzx/70UaIp93I7cew/tyf8HR914u8FX3gD9h34bajol5fwtC/jLxMEE9oCMFre3QsofHR3Ygdduen49+IL/VfFF5f6rruqT3d/qUss17fXcpklnmkJZ5HY8sxJJJPUmrw9Gp7V1Z7iqTjyKET+sr/gnJ/yYd8JP+xC07/0Stfzmf8ABZ3/AJSk/Gj/ALG1/wD0Ba/QP9k7/g5n/Zz+BX7Nvgj4N+LvgD4uuNR8M+HbbTby4sLiAwyNEgTcpYg4OM4Nflv+3H+0NpX7Wf7W/jv9o7Q/D8+lWfizW3vLbTrmQPJChAADEcE8ZpYalUhVk5LT/ghVnGUEkz+ij/ghRI8n/BKz4SBsfLoTKOOwlevxi/4OIMf8PP8Axdz/AMw2yz/3wa+jf+Ccv/BxD8Av2Nv2O/B37N3jr4G+KNS1HwxZvby3+mXEPkzguzBgGII69K+EP+Cmv7YXhr9ur9rrXv2iPCPhO70XTtTt4Ibexv5FaUCNcbm28ZOelOhTqQxEpNaMKk4umkmffHwtT+1/2VNHt/AkiLJP4MWPTzH080wFTj335/GvyR1PQ/EGg6nPoviPTLq31G1maO9guI2Eiyg/NuzyTnJz3619Kfsb/wDBRDUPgBoEfw1+I+iXGr+HYpC1jNauPtFlk5KqG4dCe2Rivdtc/wCClf7G8zL4jl8G6hqGoIoMe7R4jMCOnzMePzr+e+HsLxp4aZ7j6VLLJYyliJqUZwdtnK13Z20l7yaVmrptH6vmtfh3jHLMLOeNWHnSjaUZK+6V7K6vto1fTszxr/gmH8BfixD8ebH4x6j4Nu7Lw7ZaXdxHUL6MxCZ5UAURhuXHHJAwPWuw/wCCxUk0Fx4EuLd9skcdw8bf3WD5B/Oue13/AIKxeNdU+Kej6npfg9dM8Iafdlr/AEmCQNc3yEEfM5GFwcEKMe5NcF+3T+1/4W/aquvD48K+Fr3TYtGhlWQ3rqWkZmzwF7V6WDyTjrNPE/A59mmDjTpqElaMlJU48tRKM3fWTcteVWs15nHicy4awXBeJyzA4hzm5J3kmuZ3hdxVtI2XXXR+R90fBnxV4Z/aj/ZbtD56tHquhmw1GMNloJgm1g3uCAa/NL44fs6/E/4EeLrrw74u8L3a28czCz1GOBmhuY88MrAY6dR2rc/Zd/a4+In7L+vy3Hh4Lf6ReODqOjXLkRy4/iU/wv7/AJ19gaN/wVg/Zy1XTUm8R+FtetLkJ+8tzaxyrnuFbPI+uK48Hk/G/hfn2KllOCeMwVeXMoxdpRetl1aava/K01bZnRiMw4b40yugsfiPq+JpKzbV09vRNO17XTTv0Pir4H/s6/Gb4weK7CDwL4Evp4Eu42mv5oTFbxKGBJaRsD8OvoK/SP8AbKtpLL9i7x3ZSsC8Hg5o3KnglVRTj2yK+avjh/wVjudS0mfQPgF4LfTHmUr/AGxqiqZIx6pGuVB9CSfpVH4sf8FMPDHxR/Zm1b4RX/gXUBruseHxp91ftKvk+bhQ0vqc7c49TWHEeVeI3GOdZXmOKy9UaVGtF8ikpTjHmhKUpu6VrR0SSejutjTJ8dwjw/l2NwlHFupOpTfvOLUW+WSUY7u+ut9NdHufHjKroUcZBXBB71+mP7AfxF039o39kZ/hv4tuFnu9ItpdB1UScs0LIfJkPqdpB+qivzOGQAPSvZf2K/2q5P2VviDf65qWkz6jo+r2Igv7KCQK+9TlJFzxkZIPqK/S/FPhbE8U8Lyhg43xNGSqU7aNtaNJvvFu3mkfHcE53RyTOlLEO1GonCfaz2fyf4Nn25+z98O7P9iH9lTWNV8UiNb21N1qF6+QS7FiIUPY4GwfSvzQ8XeJ9S8Z+KdQ8W6tMXutQvJLiVmOTlmJr6W/bJ/4KGaV+0P8NYvhr4E8K3+l2014JtTmvJVzKq/dQBe2ck+tfK9eZ4XcOZ1l8cZm+dw5cXip3adrqK2WjdrtvS+yidnGub5di3h8Blsr0KEbJ929+19La97n6l/sY+O9B+Pv7KFl4fubpXnttOfSdWiJBZDtIDEdsg5H0r8+f2gv2Z/iX+z14zvPD/iTw3dNpwuG/szVYYWeC4hz8uHAwGxwQecimfs7/tJ/EX9mvxf/AMJP4Hu1khmwuoabcEmG6QdmHY+jDkV9oeD/APgq5+z94n0tYPiF4R1XSrllxPEIFuYM+x6n8RXy/wDZHGfhrxJi8Zk+D+t4LEy5nCLtKLu3tq1a7SajJNWvZnt/X+HeMMnoYfMMR7DEUVyqTV4yWi8lrZdU0+6Pzzhs72eRYYLGZ3Y4CJCxJP0ArY8S/C/4j+C9Ds/EvjDwNqul2GoytHYXeoWTxJO4G4hCwGeCDX37ef8ABSf9jbw0DfeH/Dl9cz46WOjRxsT9WxXzJ+2v+28f2rLHSPCuj+CBpGk6JfS3ULzT+ZNO7oE5wAEAA6c896+zyDi/jXPM1pUqmTSw+Hu+edSeqVnbli4xbbdls/kfPZpkHDuW4Gc4ZgqtXTljCOjd1u7tbX7H2/8AsM/8mbeBv+xdXP5NX5Y+MP8AkbtV/wCwlP8A+jDX1z+zx/wUt+H/AMHfgLoXwq1n4fandX2jaabXz7eVPLlIzhueR15r4/1m/Grazd6oIyourmSUKTnbuYnH615Hhnw3nmScTZ1icdRcIVql4N295c9R3Vm+klv3O/jHOMtzLJsuo4aopSpwtJa6PlgtbrumVa9q/wCCeV/a2H7XnhI3UoQTXLxoWOBuKGvFaveG/EOseEvEFl4o8P3j219YXKT2s6HlHU5FfqOeZdLN8kxOBi7OrTnBPs5RaT/E+KyzFrAZjRxLV1CUZW9Gmfob/wAFWfh34y8b/BTRdS8JaBc6iNI1rzb6KzhMjpGyld+0c4B6ntX59r4D8cNp9xqy+DtUNraIXubj7BJshX1ZsYUe5r7e+G//AAV48E3Ggw2/xe+HWpR6ikYW4udHKSRTsBy21yNufTmsP9or/gp78MPiH8KNd+HHw8+HOqedrentam81Py4lhDEZYBCd304r8N4CreI/B+Dp5FPKOeCqP95zpRUZSXM+qdtWtU+lj9K4op8I5/iJ5pHH8snD4OVttpaLyvonv3ubf/BHEj/hAPHJB669b9/+nda8P/4KPaXqOt/tp6xo2j2Mlzd3Vtp8VvbwoWeR2t0AVR3JNTfsL/toeFv2UfD3iDQPE3hC91NdYvYriGWzlVShSMIVIP0zmuR+OH7TMfxH/aiH7RPhfw81oLe5tJbWxvH3ZMCqPmx67fwzXt5Vw3xDgvFnM83VD9zOk1Tk2uWUrUrLe6u4u+mljzcbm+U4jgXB5f7X95Gackk7pXnd7W2a69TzzxT8PvHnge8On+MPBmqaXODgxX1jJGf/AB4VF4StfGEviayTwPBqH9rG5T7D/Z6P5wkyMbdvOa+7/CP/AAVf+BvijT1tvij8N9QsJ2UCZYY0uoD/AN9YP4YrY/4eQfsX+FEfUvDPhy7a5K/csNFSN29snFa1ePuPqMHh6/Ds5VNrxnzQb9VFq3/b3zIhwtwtUkqtLNoqG+sbSX4rX5Hp3xUvL3R/2NdVuPi3OhvU8GMurtLjm4MeOffcR+NeL/8ABHAMPgj4oVx8w8QQ5z6+SK+f/wBr39vXxj+0xaDwZoulHQ/DEc3mNZiXdNdsOhlYcY/2Rx9a0/2Hv24fCf7LHgzW/CXibwZe6l/aeppdwz2cqjZhNpUg/nmviY+HHFGE8McbhXRvisTWp1PZRa9yMZLTe17XbSbsrLc+kfF+S1+M8PW9pajRpyhztP3m1vte2263uJ+1vz/wUrg/7GbQv/RkVfXf/BSfH/DJfikf9PFt3/6brXwF8af2gNP+J/7Uh/aC07w/LbW0er2F3Hp8sgLsts6NgkdC2z8M17Z+1Z/wUe8DfH/4Lap8MfD/AMPtRsrnU5oWNzdTqUjCOHPA69MV7Gb8H8SYjHcLzp4dtYWNJVdY+44uk3fXpZ7X2POy/P8AJ6WFzqM6yTrym4aP3rqdraea3tufIVe7/wDBNvP/AA114ezn/VXH/os14RXof7Lnxm074AfGrSvihq2jzX9tYiRZbaBwrsGUjIJ471+y8W4LE4/hfG4bDx5qk6U4xXduLSWvc/PsixFHCZ1hq1V2jGcW32Sauz62/wCCw6hvhz4SVu+qygj/AIDXbf8ABM747aX8TvgRB8OtQvVOteFgbaa2ZvmktT9xlHcAHBr5e/bg/bX8LftT+HtD0Hwz4OvdN/su7eaWW8lU78jAAArw74dfEnxv8J/Flv42+H3iCfTdRtj8k0LcMO6sOjKe4NfkGW+GmPznwqpZNjo+xxNOc5w5tbS5pWTtfSUXZ220dtLH32M4ywuXccVMwwz9pRnGMZW6qy2vbVNfofRH7V//AATn+LXhP4g6j4p+Dnhp9d8PajctcRW9m48+zZyS0ZQnLDJOCuffFcd8LP8AgnZ+038SNWjtNS8Gt4esi4FxqGtME8te+Ix87H0GMe4r1Xwf/wAFgvG+n6Ylv44+Edhql0qgNdWV+1sHx3KlW5+lcd8a/wDgqB8dPidpU3h3wVYW/hWzuVKSPYOZLpwf4RKfu/8AAQD7135VW8bqeGhltXD0FypR9vKSlotOZxjJuUvWCv1W5y46n4byrSxkKtR319lFW17Xa0XpJ26M+2/jnoQ8M/sl+JfDa3Pnf2f4JuLfzdu3fstyu7HbOM4r8jK/Wb45s3hv9jTXodZlYSxeCGhmaRskyNAE5PckmvyZrzfABT/svMJN3/erXv7p1+Kbj9ewiSt+7enbUKKKK/oJH5WFFFFCdgCiiikAUUUVWwBRS96P8fxqgEo/POaKKhOwBRRRQlcAoZQylT07il70lU2B9OfA742/s9/HXwvp/wADP2s/DNrZ3FnCtr4f8a2UYhlhUDCRyso7dicip/jR/wAEtvi14QgbxJ8G9Zt/F+jyJ5kCxMEuPL65H8L8dx1r5dKgjDd+uRXtv7M/7d/xj/Zymj0ZL1tc8Ohxv0i+lJMQ7+U55U+3SvzLOOG+J8lrSx3C1dWbblhqmtKTerdNt3pt9k1FvsfY5fm+S5jTjhs7pvTSNaGk0tkpr7aXdpteZ5D4l8L+J/BmpPpPi/w7e6Zcxth4b62aMg/iMVn9RuHT1r9Rfh5+07+yD+15pMeieJLbSv7RkTEmjeI4EWVWP9xz972IOeKx/iD/AMEs/wBmXxjvvvDEGo+HZZBlDp1zviJ9cNnj2FfNUPGzB5diPqnEWBq4Wst9OaPqtpW9FL1PZq+HFfF0fb5RiYV6b21s/wBVf1a9D80qOtfZni3/AII8eM7dy3gT4wWF2p+4mpWhix7ZFcFrX/BLH9qzSnK2Njo+ogH71pfYB/76r7TCeKHAGPinTzCC8pXg/wDyZI+dxHBfFOGfvYWT/wANpfk2fOFFe6yf8E2v2x0cqnwuRsd11KL/ABqxYf8ABMv9r68fbP4EtLb/AGpdRT+lejLjnguEeZ5jQ/8ABkP8ziXDPEUnZYSp/wCAS/yPAqK+rPDX/BI74/aiVk8R+MfD+nRsfnVZWkdfwxivUvAn/BH74cWDrL8QfifqeqkDJh06AQL9DnORXgZj4v8Ah9l8W3jFUfaEZS/G3L+J62E4B4qxbVsPyrvJqP63/A+Hvhr4+vfhl43svGulaLp+o3dkWa2s9TtvOiZyMBincjqPevq3wD8d/wDgqN8ZNNl1nwDohs9Pgt2mE8umx28TIoJOzzBzwK9v1Twr+wH+xbp39qatpGiW99EgMUUxF3eyt1BVTnaT69K+Y/2of+Cl3xD+L1lceCfhTav4X8NurJLIjBbq6T0JHEakdhXxss5r+JWOhVyzJISgrL6xi43io3u1GC+J6v4ZPzsj31l1Pg/DShjcxlGT19lQdpN+cnsvVelz6A/4JzftTfGf4/av4k0H4t3Ntcpoaxst/FAI2V8kMjbeMYGa+Hf2nPElp4u/aD8Xa/Y4MM2tzKjL0YK23P44r6T+CfjHTf2N/wBgy98e6kyx+KviJLK2i2jn960ZBRZCOuFXJz3zXxnJJLNI088u93YtIxPUk5Jr2/D/ACHBUOMM2zTA0VSw940aairRk4W9rKK2tzqytpe/Y8/inNMRUyDAYLE1HOrZ1JNu7Sl8Cb78rv8AcNooor9hTsfn4UUUU7XAKKd/n/PtScsadgEoo+maKXwgFFFFNKwBRRRQncAoo/PpRQlYAooopPUAopd7etJTauAUUUUuUAoooo5QD9aKOfve9FUAUUUVmAUUUVXwgFFFFNuwBRRRSiAUUUUcoBRRR+ec0RAKKKKoAoooqGrAO/8Aiq91/ZO/Yg1P9q3wVrviPRPHkOlXej3SQxWs9tvSbcM5ZgcqK8IrqPhj8Zvin8GdVbWfhh41u9JmkIMqwPmOXHTeh4avE4jw+e4zKZ08nrRo4i6cZSXNHRptNWejWl7Ox6WUVstoY+MsfTdSlrdJ2eq0a1Wz1tc9s1r/AIJV/tSaZdmDT10TUE3YE9velRj1+avS/wBmf/glf4o0Hxvp/jb4661ZPa6dcpcQ6Jp5MjTyIcqJGPAXIBIHXpXm+h/8FW/2otJtlh1CDQdTcDma7syCff5eKxviB/wUs/ap8eafLpdv4ls9DgmUrKNIttrkezNyv4V+UYvAeOWZ4eWCq1cNShJcrqRvzWe9tG07dkn5o+5oYrw0wVVYmEK05R1UJbX6X1SfzbXqfQP/AAVH/aZ8P6N4GP7PnhXUorjVNTkjk1sQOCLW3QhljYjozMFOOwX3r4Aqa8vL3UryXUNRvJbi4ncvPPNIWeRj1JJ5JqGv0TgrhHB8FZFDL6EuZ3cpytbmk7XduiSSSXZd7nyXEefYjiPM5YuquVWtGPaK2V+r3b82FFFFfXpHghRRRSasAUUUU+UAoooqQCiiim3cAooopAFFFFABRRRTasAUUUUgFyVcSoxV1OVZThl+hHIr1P4VftqftKfB1Y7Twv8AEi6uLOPAFhqv+kR7f7o3cqPpXldFcOY5Xlub0PY46jGrDtOKkvxWnqjpwmNxmAq+0w1SUJd4tp/gfaHgj/gsJ4mtkWH4j/CG0u26NcaTeGLHvtbOfzr0bSv+CuX7PFzbqdW8IeJ7eb+JY7RHUfjuFfnTRX5xjfBfw+xs+ZYaVN/3JyS+5tpfKx9fhvEXivDx5XWU/wDFFN/ekmfpEP8AgrL+zDjnSvE2ffT1/wDiqr3f/BW79myCMm28NeKZ3A+UfYUAP476/OWiuCPgTwEnrGq/+4n/AADpfibxQ1vD/wAA/wCCfcHjL/gsOnlvD8P/AIOMXx8lxql7x+KKP614f8T/APgod+1H8T45LJ/Gy6HZyf8ALrocXlED/fPzV4fRX1eUeGPA2SzU8PgoOS6zvN/+TtpfJI8XH8ZcTZjFxq4mST6RtFf+S2Jb69vtUvH1HVb2a5uHOXnuJS7t+J5qJlDKUYZB4PvRRX3MbRSSWiPmG23dml4i8XeKfFzWr+J9fur77DbLb2YuZCwghXgIg6KKzaKKmFKnRgoU0kl0SsipznUlzSd35hRRRVEhRRRVRAKKKKTVgCiiikAUUUU0rgFFFFPmAKKKKGAUUUUmrAFFFFABRRRVJ3AKKKKgAooooAKKKKACiiigAoooqtwCiiiiIBRRRUgFFFO/z/n3qogNoooqQCiiiquAUUUU0rAFFFFS3cAooopAFFFFVEAooopNWAKKKKQBRRRTasAUUUUJXAKKKKEAUUUUJ2AKKKKQBRRRTbuAUUUUgCiiiq5QCiiipAKKKKACiiiqiAUUUU2rgFFFFS1YAooopAFFFFOwBRRRSAKKKKACiiiqkAUUUVIBRRRTSuAUUvKmkoasAUUUUN3AKKKKQBRRRTTsAUUUUAFFFFIAoooqogFFFFJqwBRRRSAKKKKaVwCiiikAUUUUAFFFH5+1WncAoooqU7AFFFFCVwCiiihK4Dv8/wCfem0UVTdgCiiioAKKXY3pSVUgCinf/FU2mlYAoooqACiil+T3oASiiirSsAUUUVLVgCiiiqauAUUUvye9LlASiiiluAUUUUgCiil49vX/AOtVcoCUUfnnNFFgCiiikwCil2N6UlUlYAoooo3AKKKKUgCiiiiIBRRRR8QBRRRSSuAUUUU+UBfm/rSUUU9wCiiipSuAUUUU7AFFFFHKAUUc/e96KTVgCiil5/KnygJRRRTSsAUUUVLVgCiiihqwBRRRVN2AKKKKXKAUUUUcoBRRRVAFFFKOn50mrgJRRRUAFFFL8nvTTsAlFHP3veim9QCiiijlAKKKKSVwCiiin8IBRRRSbuAUUUUgCiijrVRAKKKKSdgCiiin8QBRRRSAKKKKQBRRRQAUUUVadwCiiioAKKKKACiiigBfm/rSUUVadwCiiilzAFFFFJOwBRRRSAKKKKACiiim1YAopf8AP1pKGrAFFFFIAooopp2AKKKKrcAoooqACiiimgCiiiqtYAoooqU7AFFFFIAoyfU0UVe4BRRRUtWAKKKKG7gFFFFCVwCiiihOwBRRRSAKKKKACiiiqkAUUUVIBRRRQAUUUUAFFFFABRRRQAUUUUAFFFFABRRRQAUUUUAFFFFABRRRQAUUUUAFFFFABRRRQAUUUUAFFFFABRRRQAUUUUAFFFFABRRRQAUUUUAFFFFABRRRQAUUUUAFFFFABRRRQAUUUUAFFFFABRRRQAUUUUAFFFFABRRRQAUUUUAFFFFABRRRQAUUUUAFFFFABRRRQAUUUUAFFFFABRRRQAUUUUAFFFFABRRRQAUUUUAFFFFABRRRQAUUUUAFFFFABRRRQAUUUUAFFFFABRRRQAUUUUAFFFFABRRRQAUUUUAFFFFABRRRQAUUUUAFFFFABRRRQAUUUUAFFFFABRRRQAUUUUAFFFFABRRRQAUUUUAFFFFABRRRQAUUUUAFFFFABRRRQAUUUUAFFFFABRRRQAUUUUAFFFFABRRRQAUUUUAFFFFABRRRQAUUUUAFFFFABRRRQAUUUUAFFFFABRRRQAUUUUAFFFFABRRRQAUUUUAFFFFABRRRQAUUUUAFFFFABRRRQAUUUUAFFFFABRRRQAUUUUAFFFFABRRRQAUUUUAFFFFABRRRQAUUUUAFFFFABRRRQAUUUUAFFFFABRRRQAUUUUAFFFFABRRRQAUUUUAFFFFABRRRQAUUUUAFFFFABRRRQAUUUUAFFFFABRRRQAUUUUAFFFFABRRRQAUUUUAFFFFABRRRQAUUUUAFFFFABRRRQAUUUUAFFFFABRRRQAUUUUAFFFFABRRRQAUUUUAFFFFABRRRQAUUUUAFFFFABRRRQAUUUUAFFFFABRRRQAUUUUAFFFFABRRRQAUUUUAFFFFABRRRQAUUUUAFFFFABRRRQAUUUUAFFFFABRRRQAUUUUAFFFFABRRRQAUUUUAFFFFABRRRQAUUUUAFFFFABRRRQAUUUUAFFFFABRRRQAUUUUAFFFFABRRRQAUUUUAFFFFABRRRQAUUUUAFFFFABRRRQAUUUUAFFFFABRRRQAUUUUAFFFFABRRRQAUUUUAFFFFABRRRQAUUUUAFFFFABRRRQAUUUUAFFFFABRRRQAUUUUAFFFFABRRRQAUUUUAFFFFABRRRQAUUUUAFFFFABRRRQAUUUUAFFFFABRRRQAUUUUAFFFFABRRRQAUUUUAFFFFABRRRQAUUUUAFFFFABRRRQAUUUUAFFFFABRRRQAUUUUAFFFFABRRRQAUUUUAFFFFABRRRQAUUUUAFFFFABRRRQAUUUUAFFFFABRRRQAUUUUAFFFFABRRRQAUUUUAFFFFABRRRQAUUUUAFFFFABRRRQAUUUUAFFFFABRRRQAUUUUAFFFFABRRRQAUUUUAFFFFABRRRQAUUUUAFFFFABRRRQAUUUUAFFFFABRRRQAUUUUAFFFFABRRRQAUUUUAFFFFABRRRQAUUUUAFFFFABRRRQAUUUUAf/9k=;" vertex="1" parent="1">
          <mxGeometry x="310" y="-310" width="75" height="50" as="geometry" />
        </mxCell>
        <mxCell id="0s3fNE5iNx1P4TI4XbMh-19" value="" style="edgeStyle=none;rounded=0;orthogonalLoop=1;jettySize=auto;html=1;exitX=0.825;exitY=0.5;exitDx=0;exitDy=0;exitPerimeter=0;entryX=0.175;entryY=0.5;entryDx=0;entryDy=0;entryPerimeter=0;" edge="1" parent="1" source="0s3fNE5iNx1P4TI4XbMh-15" target="0s3fNE5iNx1P4TI4XbMh-18">
          <mxGeometry relative="1" as="geometry" />
        </mxCell>
        <mxCell id="0s3fNE5iNx1P4TI4XbMh-15" value="Cloud&#xa;Storage" style="html=1;fillColor=#5184F3;strokeColor=none;verticalAlign=top;labelPosition=center;verticalLabelPosition=bottom;align=center;spacingTop=-6;fontSize=11;fontStyle=1;fontColor=#999999;shape=mxgraph.gcp2.hexIcon;prIcon=cloud_storage" vertex="1" parent="1">
          <mxGeometry x="410" y="-570.88" width="100" height="81.75" as="geometry" />
        </mxCell>
        <mxCell id="0s3fNE5iNx1P4TI4XbMh-18" value="BigQuery" style="html=1;fillColor=#5184F3;strokeColor=none;verticalAlign=top;labelPosition=center;verticalLabelPosition=bottom;align=center;spacingTop=-6;fontSize=11;fontStyle=1;fontColor=#999999;shape=mxgraph.gcp2.hexIcon;prIcon=bigquery" vertex="1" parent="1">
          <mxGeometry x="584.5" y="-569.12" width="100" height="81.75" as="geometry" />
        </mxCell>
        <mxCell id="0s3fNE5iNx1P4TI4XbMh-20" value="Container&#xa;Registry" style="html=1;fillColor=#5184F3;strokeColor=none;verticalAlign=top;labelPosition=center;verticalLabelPosition=bottom;align=center;spacingTop=-6;fontSize=11;fontStyle=1;fontColor=#999999;shape=mxgraph.gcp2.hexIcon;prIcon=container_registry" vertex="1" parent="1">
          <mxGeometry x="240" y="-440" width="100" height="80" as="geometry" />
        </mxCell>
        <mxCell id="0s3fNE5iNx1P4TI4XbMh-35" value="" style="edgeStyle=none;rounded=0;orthogonalLoop=1;jettySize=auto;html=1;" edge="1" parent="1" source="0s3fNE5iNx1P4TI4XbMh-25">
          <mxGeometry relative="1" as="geometry">
            <mxPoint x="290" y="-470" as="targetPoint" />
          </mxGeometry>
        </mxCell>
        <mxCell id="0s3fNE5iNx1P4TI4XbMh-25" value="" style="rounded=1;whiteSpace=wrap;html=1;fillColor=none;" vertex="1" parent="1">
          <mxGeometry x="175" y="-430" width="230" height="190" as="geometry" />
        </mxCell>
        <mxCell id="0s3fNE5iNx1P4TI4XbMh-34" value="&lt;h1&gt;ETL ACSOP&lt;/h1&gt;" style="text;html=1;strokeColor=none;fillColor=none;align=center;verticalAlign=middle;whiteSpace=wrap;rounded=0;" vertex="1" parent="1">
          <mxGeometry x="30" y="-680" width="250" height="50" as="geometry" />
        </mxCell>
      </root>
    </mxGraphModel>
  </diagram>
</mxfile>
